<?xml version="1.0" encoding="UTF-8"?><svg id="a" xmlns="http://www.w3.org/2000/svg" viewBox="0 0 776.808 970.618"><polygon points="505.178 10 271.63 10 82.685 147.276 10.515 369.394 82.685 591.512 271.63 728.788 505.178 728.788 694.123 591.512 766.293 369.394 694.123 147.276 505.178 10" fill="none" stroke="#fff" stroke-miterlimit="10" stroke-width="20"/><polygon points="118.858 281.813 118.858 456.974 221.815 598.683 388.404 652.811 554.992 598.683 657.949 456.975 657.949 281.814 554.992 140.105 388.404 85.977 221.816 140.105 118.858 281.813" fill="none" stroke="#fff" stroke-miterlimit="10" stroke-width="20"/><line x1="766.293" y1="369.394" x2="388.404" y2="369.394" fill="none" stroke="#fff" stroke-miterlimit="10" stroke-width="20"/><line x1="388.404" y1="404.369" x2="754.771" y2="404.369" fill="none" stroke="#fff" stroke-miterlimit="10" stroke-width="20"/><line x1="388.404" y1="334.419" x2="754.771" y2="334.419" fill="none" stroke="#fff" stroke-miterlimit="10" stroke-width="20"/><path d="M105.588,909.255h-17.727l51.272-139.637h17.455l51.273,139.637h-17.728l-41.727-117.546h-1.091l-41.728,117.546ZM112.133,854.71h71.455v15h-71.455v-15Z" fill="#fff"/><path d="M227.496,948.528v-144h15.546v16.637h1.909c1.182-1.817,2.83-4.147,4.943-6.988s5.158-5.387,9.136-7.637c3.977-2.25,9.375-3.375,16.193-3.375,8.818,0,16.59,2.205,23.318,6.613,6.727,4.41,11.977,10.66,15.75,18.75,3.772,8.092,5.659,17.637,5.659,28.637,0,11.091-1.887,20.693-5.659,28.807-3.773,8.113-9,14.387-15.682,18.818-6.682,4.432-14.386,6.647-23.114,6.647-6.728,0-12.114-1.125-16.159-3.375-4.046-2.25-7.159-4.817-9.341-7.704-2.182-2.887-3.864-5.284-5.045-7.193h-1.363v55.363h-16.091ZM243.314,856.892c0,7.909,1.159,14.875,3.478,20.897,2.318,6.023,5.704,10.728,10.159,14.113,4.455,3.387,9.909,5.08,16.364,5.08,6.727,0,12.352-1.783,16.875-5.353,4.522-3.567,7.932-8.387,10.228-14.454,2.294-6.068,3.443-12.829,3.443-20.284,0-7.364-1.125-14.012-3.375-19.943s-5.637-10.637-10.159-14.114c-4.523-3.477-10.193-5.216-17.011-5.216-6.545,0-12.046,1.648-16.5,4.943-4.455,3.296-7.818,7.887-10.091,13.772-2.273,5.888-3.409,12.74-3.409,20.558Z" fill="#fff"/><path d="M390.042,804.528v13.637h-54.272v-13.637h54.272ZM351.587,779.437h16.091v99.818c0,4.546.67,7.943,2.012,10.193,1.34,2.25,3.067,3.75,5.182,4.5,2.113.75,4.352,1.125,6.716,1.125,1.772,0,3.227-.103,4.363-.307,1.136-.205,2.046-.375,2.728-.512l3.272,14.454c-1.091.409-2.614.829-4.568,1.262-1.954.432-4.432.647-7.432.647-4.546,0-8.989-.978-13.329-2.932-4.342-1.954-7.933-4.932-10.773-8.932-2.841-3.999-4.261-9.045-4.261-15.137v-104.182Z" fill="#fff"/><path d="M456.859,911.437c-9.455,0-17.738-2.25-24.852-6.75-7.115-4.5-12.66-10.795-16.637-18.886-3.979-8.091-5.966-17.546-5.966-28.364,0-10.909,1.987-20.431,5.966-28.568,3.977-8.136,9.521-14.454,16.637-18.954,7.113-4.5,15.396-6.75,24.852-6.75s17.738,2.25,24.853,6.75c7.113,4.5,12.658,10.818,16.637,18.954,3.977,8.138,5.966,17.659,5.966,28.568,0,10.818-1.989,20.273-5.966,28.364-3.979,8.091-9.523,14.386-16.637,18.886-7.114,4.5-15.398,6.75-24.853,6.75ZM456.859,896.983c7.182,0,13.091-1.841,17.728-5.523,4.637-3.682,8.067-8.522,10.296-14.522,2.227-6,3.341-12.499,3.341-19.5s-1.114-13.522-3.341-19.568c-2.229-6.044-5.659-10.931-10.296-14.659-4.637-3.727-10.546-5.591-17.728-5.591s-13.091,1.864-17.727,5.591c-4.637,3.729-8.069,8.615-10.296,14.659-2.228,6.046-3.341,12.569-3.341,19.568s1.113,13.5,3.341,19.5c2.227,6,5.659,10.841,10.296,14.522,4.636,3.683,10.544,5.523,17.727,5.523Z" fill="#fff"/><path d="M528.859,909.255v-104.728h15.545v15.818h1.091c1.909-5.182,5.363-9.386,10.364-12.613,4.999-3.228,10.636-4.841,16.909-4.841,1.181,0,2.659.023,4.432.067,1.772.046,3.112.114,4.022.205v16.363c-.545-.136-1.784-.352-3.716-.647-1.933-.295-3.966-.443-6.103-.443-5.091,0-9.625,1.057-13.602,3.171-3.979,2.113-7.115,5.022-9.409,8.727-2.296,3.706-3.443,7.921-3.443,12.648v66.272h-16.091Z" fill="#fff"/><path d="M631.129,911.71c-6.638,0-12.66-1.261-18.068-3.783-5.41-2.523-9.705-6.182-12.887-10.978-3.182-4.795-4.772-10.603-4.772-17.421,0-6,1.182-10.875,3.545-14.625s5.523-6.692,9.478-8.829c3.955-2.136,8.329-3.738,13.125-4.807,4.795-1.067,9.624-1.92,14.488-2.558,6.363-.817,11.534-1.442,15.512-1.875,3.977-.431,6.887-1.169,8.728-2.216,1.841-1.045,2.761-2.863,2.761-5.454v-.546c0-6.727-1.83-11.954-5.488-15.682-3.659-3.727-9.193-5.591-16.603-5.591-7.682,0-13.704,1.683-18.067,5.046-4.364,3.364-7.433,6.954-9.205,10.772l-15.272-5.455c2.728-6.363,6.375-11.328,10.943-14.897,4.567-3.567,9.567-6.068,15-7.5,5.431-1.432,10.783-2.147,16.057-2.147,3.363,0,7.237.398,11.625,1.193,4.386.796,8.636,2.42,12.75,4.875,4.113,2.454,7.534,6.159,10.261,11.113,2.728,4.955,4.092,11.591,4.092,19.909v69h-16.092v-14.182h-.817c-1.091,2.273-2.91,4.704-5.455,7.295-2.546,2.591-5.932,4.797-10.159,6.614-4.227,1.817-9.387,2.727-15.477,2.727ZM633.584,897.255c6.363,0,11.738-1.25,16.125-3.75,4.386-2.499,7.704-5.728,9.954-9.682,2.25-3.955,3.375-8.114,3.375-12.478v-14.728c-.682.818-2.171,1.558-4.466,2.216-2.296.66-4.933,1.228-7.909,1.705-2.978.478-5.863.887-8.658,1.228-2.796.341-5.058.625-6.784.852-4.183.546-8.08,1.422-11.693,2.625-3.614,1.205-6.523,3-8.728,5.387-2.205,2.387-3.307,5.625-3.307,9.716,0,5.591,2.079,9.808,6.238,12.647,4.159,2.842,9.443,4.262,15.853,4.262Z" fill="#fff"/></svg>